HIERARCHY
ROOT joint_Root
{
	OFFSET 0.0 0.0 0.0
	CHANNELS 6 Xposition Yposition Zposition Zrotation Xrotation Yrotation 
	JOINT Hips
	{
		OFFSET -17.1583 93.1646 452.98
		CHANNELS 6 Xposition Yposition Zposition Zrotation Xrotation Yrotation 
		JOINT Spine
		{
			OFFSET 15.7357 0.0 0.0
			CHANNELS 6 Xposition Yposition Zposition Zrotation Xrotation Yrotation 
			JOINT Chest
			{
				OFFSET 8.98455 -0.406207 0.0
				CHANNELS 6 Xposition Yposition Zposition Zrotation Xrotation Yrotation 
				JOINT Neck
				{
					OFFSET 16.3773 0.0 0.0
					CHANNELS 6 Xposition Yposition Zposition Zrotation Xrotation Yrotation 
					JOINT Head
					{
						OFFSET 6.45672 0.0 0.0
						CHANNELS 6 Xposition Yposition Zposition Zrotation Xrotation Yrotation 
						End Site
						{
							OFFSET 0.0 0.0 0.0
						}
					}
				}
				JOINT Shoulder_L
				{
					OFFSET 12.9942 -0.242716 4.98039
					CHANNELS 6 Xposition Yposition Zposition Zrotation Xrotation Yrotation 
					JOINT UpperArm_L
					{
						OFFSET 5.34809 0.0 0.0
						CHANNELS 6 Xposition Yposition Zposition Zrotation Xrotation Yrotation 
						JOINT LowerArm_L
						{
							OFFSET 24.3286 1.87007e-05 0.0
							CHANNELS 6 Xposition Yposition Zposition Zrotation Xrotation Yrotation 
							JOINT Hand_L
							{
								OFFSET 22.2916 0.0 0.0
								CHANNELS 6 Xposition Yposition Zposition Zrotation Xrotation Yrotation 
								End Site
								{
									OFFSET 0.0 0.0 0.0
								}
							}
						}
					}
				}
				JOINT Shoulder_R
				{
					OFFSET 12.9945 -0.242716 -4.98039
					CHANNELS 6 Xposition Yposition Zposition Zrotation Xrotation Yrotation 
					JOINT UpperArm_R
					{
						OFFSET -5.34813 0.0 0.0
						CHANNELS 6 Xposition Yposition Zposition Zrotation Xrotation Yrotation 
						JOINT LowerArm_R
						{
							OFFSET -24.3289 0.000322201 0.0
							CHANNELS 6 Xposition Yposition Zposition Zrotation Xrotation Yrotation 
							JOINT Hand_R
							{
								OFFSET -22.2915 -0.000108084 0.0
								CHANNELS 6 Xposition Yposition Zposition Zrotation Xrotation Yrotation 
								End Site
								{
									OFFSET 0.0 0.0 0.0
								}
							}
						}
					}
				}
			}
		}
		JOINT UpperLeg_L
		{
			OFFSET -2.19248 -6.46944 0.0
			CHANNELS 6 Xposition Yposition Zposition Zrotation Xrotation Yrotation 
			JOINT LowerLeg_L
			{
				OFFSET 39.0811 0.0 -1.23785e-05
				CHANNELS 6 Xposition Yposition Zposition Zrotation Xrotation Yrotation 
				JOINT Foot_L
				{
					OFFSET 40.9854 0.0 -1.26872e-05
					CHANNELS 6 Xposition Yposition Zposition Zrotation Xrotation Yrotation 
					JOINT Toes_L
					{
						OFFSET 11.7543 0.0 0.0
						CHANNELS 6 Xposition Yposition Zposition Zrotation Xrotation Yrotation 
						End Site
						{
							OFFSET 0.0 0.0 0.0
						}
					}
				}
			}
		}
		JOINT UpperLeg_R
		{
			OFFSET -2.19251 6.46944 0.0
			CHANNELS 6 Xposition Yposition Zposition Zrotation Xrotation Yrotation 
			JOINT LowerLeg_R
			{
				OFFSET -39.0811 -0.00228153 -0.0401928
				CHANNELS 6 Xposition Yposition Zposition Zrotation Xrotation Yrotation 
				JOINT Foot_R
				{
					OFFSET -40.9854 0.0 0.0
					CHANNELS 6 Xposition Yposition Zposition Zrotation Xrotation Yrotation 
					JOINT Toes_R
					{
						OFFSET -11.7543 0.0 0.0
						CHANNELS 6 Xposition Yposition Zposition Zrotation Xrotation Yrotation 
						End Site
						{
							OFFSET 0.0 0.0 0.0
						}
					}
				}
			}
		}
	}
}
MOTION
Frames:	4
Frame Time:	0.0333333
0.000000 0.000000 0.000000 0.000000 0.000000 -0.000000 2.467770 91.433100 2.829870 91.945700 0.656220 2.648810 15.735700 0.000005 -0.000001 86.166700 86.734300 -85.580000 8.984550 -0.406207 -0.000000 -1.246610 -0.482680 1.167680 16.377300 -0.000001 -0.000001 -0.029950 2.672490 -2.769230 6.456720 -0.000001 -0.000000 5.537900 2.440490 -1.876020 12.994200 -0.242716 4.980390 -93.063500 9.059280 -71.227900 5.348090 -0.000007 -0.000001 -57.542700 13.503700 -15.781900 24.328600 0.000019 0.000005 20.515700 25.874400 -40.614400 22.291600 -0.000001 0.000005 -1.449390 5.044660 6.132870 12.994500 -0.242716 -4.980390 89.342300 2.259680 -73.765800 -5.348130 -0.000001 -0.000004 -62.509200 -4.070040 5.454010 -24.328900 0.000322 -0.000009 -0.000819 24.007400 0.000113 -22.291500 -0.000108 -0.000004 -3.638550 4.759350 12.075400 -2.192480 -6.469440 -0.000000 175.370000 3.188190 -7.030900 39.081100 -0.000007 -0.000012 0.292425 -0.559689 27.586600 40.985400 -0.000006 -0.000013 4.865210 5.230320 -73.122700 11.754300 -0.000000 0.000003 0.000876 0.151283 -10.441500 -2.192510 6.469440 -0.000001 177.227000 3.763580 157.866000 -39.081100 -0.002282 -0.040193 0.194362 -0.084025 66.277300 -40.985400 0.000008 0.000006 -5.058060 -5.934310 -51.604600 -11.754300 -0.000006 -0.000006 0.001773 0.128794 -11.350400
0.000000 0.000000 0.000000 0.000000 0.000000 -0.000000 1.652100 92.360500 6.830840 89.794900 3.066790 2.699540 15.735700 0.000005 -0.000001 68.377200 86.287900 -66.795200 8.984550 -0.406207 -0.000000 -0.822873 -2.853710 3.142580 16.377300 -0.000001 -0.000001 -0.228904 3.021230 -3.562240 6.456720 -0.000001 -0.000000 4.501410 3.379200 -1.927530 12.994200 -0.242716 4.980390 -92.490300 7.584910 -71.763600 5.348090 -0.000007 -0.000001 -55.506900 13.815200 -19.581100 24.328600 0.000019 0.000005 24.140000 21.696500 -50.479900 22.291600 -0.000001 0.000005 7.550940 4.768210 11.849600 12.994500 -0.242716 -4.980390 89.526500 1.541460 -72.916600 -5.348130 -0.000001 -0.000004 -59.489400 -6.514440 12.885500 -24.328900 0.000322 -0.000009 0.221176 20.131100 -0.657013 -22.291500 -0.000108 -0.000004 -3.173750 4.926670 8.859390 -2.192480 -6.469440 -0.000000 178.420000 4.338790 -1.100930 39.081100 -0.000007 -0.000012 0.131107 -0.339113 21.137500 40.985400 -0.000006 -0.000013 2.610060 7.183320 -71.719900 11.754300 -0.000000 0.000003 0.001154 0.145180 -10.689200 -2.192510 6.469440 -0.000001 -179.293000 5.763650 155.718000 -39.081100 -0.002282 -0.040193 0.133032 -0.078674 58.784200 -40.985400 0.000008 0.000006 -5.149420 -10.856400 -57.012300 -11.754300 -0.000006 -0.000006 0.001796 0.128070 -11.379800
0.000000 0.000000 0.000000 0.000000 0.000000 -0.000000 1.063040 92.797600 10.669500 89.025200 5.163020 2.651120 15.735700 0.000005 -0.000001 56.007200 85.577500 -53.938900 8.984550 -0.406207 -0.000000 -0.335742 -5.090170 4.121620 16.377300 -0.000001 -0.000001 -0.581553 3.330050 -3.866740 6.456720 -0.000001 -0.000000 3.110190 4.423880 -2.414620 12.994200 -0.242716 4.980390 -92.107500 6.580170 -72.197100 5.348090 -0.000007 -0.000001 -53.793800 10.920500 -22.398700 24.328600 0.000019 0.000005 25.873500 16.948600 -59.001800 22.291600 -0.000001 0.000005 12.945900 4.772440 11.849300 12.994500 -0.242716 -4.980390 89.749100 0.763443 -71.797600 -5.348130 -0.000001 -0.000004 -56.688400 -7.580820 18.952100 -24.328900 0.000322 -0.000009 0.989677 11.664000 -4.910960 -22.291500 -0.000108 -0.000004 -1.375780 5.127590 4.492020 -2.192480 -6.469440 -0.000000 -179.354000 4.207670 3.624070 39.081100 -0.000007 -0.000012 -0.004256 0.015152 15.687800 40.985400 -0.000006 -0.000013 -3.693190 10.548800 -68.242200 11.754300 -0.000000 0.000003 0.001561 0.134979 -11.103000 -2.192510 6.469440 -0.000001 -177.620000 7.653910 154.609000 -39.081100 -0.002282 -0.040193 0.076727 -0.065233 48.399900 -40.985400 0.000008 0.000006 -3.886360 -14.164300 -59.326600 -11.754300 -0.000006 -0.000006 0.001567 0.134866 -11.104100
0.000000 0.000000 0.000000 0.000000 0.000000 -0.000000 0.638364 92.756900 14.508600 89.226300 6.644560 2.497180 15.735700 0.000005 -0.000001 48.646400 84.848100 -46.522900 8.984550 -0.406207 -0.000000 0.106188 -6.947970 4.254700 16.377300 -0.000001 -0.000001 -1.255830 3.544200 -3.765190 6.456720 -0.000001 -0.000000 2.063280 5.499140 -2.812320 12.994200 -0.242716 4.980390 -91.910400 6.128580 -72.649400 5.348090 -0.000007 -0.000001 -52.626100 5.927190 -24.436800 24.328600 0.000019 0.000005 21.921200 10.546000 -65.563900 22.291600 -0.000001 0.000005 13.801200 4.953520 8.278750 12.994500 -0.242716 -4.980390 90.000600 -0.001604 -71.021800 -5.348130 -0.000001 -0.000004 -53.969800 -9.776520 23.862900 -24.328900 0.000322 -0.000009 0.635582 4.569120 -7.960470 -22.291500 -0.000108 -0.000004 1.694880 5.230390 1.967970 -2.192480 -6.469440 -0.000000 -178.378000 1.978950 6.974960 39.081100 -0.000007 -0.000012 -0.003149 0.013347 13.273200 40.985400 -0.000006 -0.000013 -3.356060 14.202600 -67.164300 11.754300 -0.000000 0.000003 0.001988 0.121380 -11.654600 -2.192510 6.469440 -0.000001 -177.315000 8.943890 154.764000 -39.081100 -0.002282 -0.040193 0.044109 -0.056492 35.850800 -40.985400 0.000008 0.000006 -2.676100 -13.908700 -58.962100 -11.754300 -0.000006 -0.000006 0.001401 0.139265 -10.925600
